<svg width="478.248" height="478.248" xmlns="http://www.w3.org/2000/svg">

 <g>
  <title>background</title>
  <rect fill="none" id="canvas_background" height="402" width="582" y="-1" x="-1"/>
 </g>
 <g>
  <title>Layer 1</title>
  <path fill="#ffffff" id="svg_4" d="m456.02,44.821l-191.19,0c-12.26,0 -22.232,9.972 -22.232,22.229l0,98.652c0,12.258 9.974,22.23 22.232,22.23l16.787,0l0,39.161c0,2.707 1.58,5.165 4.043,6.292c0.92,0.42 1.901,0.627 2.875,0.627c1.631,0 3.244,-0.576 4.523,-1.685l51.383,-44.396l111.576,0c12.26,0 22.23,-9.973 22.23,-22.23l0,-98.651c0.003,-12.258 -9.97,-22.229 -22.227,-22.229zm-136.098,67.431l-10.209,9.953l2.41,14.054c0.174,1.015 -0.242,2.038 -1.076,2.643c-0.469,0.342 -1.027,0.516 -1.588,0.516c-0.428,0 -0.861,-0.103 -1.256,-0.31l-12.621,-6.635l-12.619,6.635c-0.912,0.478 -2.016,0.398 -2.848,-0.206s-1.248,-1.628 -1.074,-2.643l2.41,-14.054l-10.211,-9.953c-0.734,-0.718 -1.002,-1.792 -0.685,-2.769c0.317,-0.978 1.164,-1.691 2.183,-1.839l14.11,-2.05l6.31,-12.786c0.457,-0.923 1.396,-1.507 2.424,-1.507s1.969,0.584 2.422,1.507l6.312,12.786l14.107,2.05c1.02,0.148 1.863,0.861 2.184,1.839c0.317,0.977 0.051,2.052 -0.685,2.769zm64.844,0l-10.211,9.953l2.412,14.054c0.172,1.015 -0.244,2.038 -1.076,2.643c-0.469,0.342 -1.025,0.516 -1.588,0.516c-0.43,0 -0.859,-0.103 -1.26,-0.31l-12.619,-6.635l-12.619,6.635c-0.912,0.478 -2.014,0.398 -2.846,-0.206c-0.834,-0.604 -1.25,-1.628 -1.076,-2.643l2.41,-14.054l-10.209,-9.953c-0.734,-0.718 -1.002,-1.792 -0.684,-2.769c0.316,-0.978 1.16,-1.691 2.182,-1.839l14.109,-2.05l6.311,-12.786c0.455,-0.923 1.396,-1.507 2.422,-1.507c1.029,0 1.967,0.584 2.422,1.507l6.312,12.786l14.109,2.05c1.021,0.148 1.863,0.861 2.182,1.839c0.319,0.977 0.051,2.052 -0.683,2.769zm64.841,0l-10.211,9.953l2.408,14.054c0.176,1.015 -0.238,2.038 -1.072,2.643c-0.471,0.342 -1.027,0.516 -1.59,0.516c-0.43,0 -0.859,-0.103 -1.258,-0.31l-12.621,-6.635l-12.621,6.635c-0.908,0.478 -2.012,0.398 -2.844,-0.206c-0.834,-0.604 -1.248,-1.628 -1.076,-2.643l2.412,-14.054l-10.211,-9.953c-0.734,-0.718 -1,-1.792 -0.684,-2.769c0.316,-0.978 1.164,-1.691 2.182,-1.839l14.111,-2.05l6.311,-12.786c0.453,-0.923 1.395,-1.507 2.42,-1.507c1.027,0 1.971,0.584 2.426,1.507l6.311,12.786l14.109,2.05c1.018,0.148 1.861,0.861 2.182,1.839c0.318,0.977 0.053,2.052 -0.684,2.769z"/>
  <path fill="#ffffff" id="svg_5" d="m152.844,112.924c-46.76,0 -72.639,24.231 -72.166,70.921c0.686,63.947 27.859,102.74 72.166,102.063c0,0 72.131,2.924 72.131,-102.063c0,-46.69 -24.37,-70.921 -72.131,-70.921z"/>
  <path fill="#ffffff" id="svg_6" d="m280.428,334.444l-72.074,-28.736l-16.877,-14.223c-4.457,-3.766 -11.041,-3.488 -15.178,0.621l-23.463,23.336l-23.533,-23.342c-4.137,-4.104 -10.713,-4.369 -15.164,-0.615l-16.881,14.223l-72.074,28.739c-23.209,9.243 -23.189,91.437 -25.184,98.98l305.646,0c-1.99,-7.527 -2,-89.748 -25.218,-98.983z"/>
 </g>
</svg>